<?xml version="1.0" encoding="UTF-8"?>
<svg width="136px" height="134px" viewBox="0 0 136 134" version="1.1" xmlns="http://www.w3.org/2000/svg" xmlns:xlink="http://www.w3.org/1999/xlink">
    <title>Logo2</title>
    <g id="Final-Wireframes" stroke="none" stroke-width="1" fill="none" fill-rule="evenodd">
        <g id="Login/signup/guest-" transform="translate(-137.000000, -381.000000)">
            <g id="Logo2" transform="translate(140.000000, 381.000000)">
                <polygon id="Rectangle-Copy" fill="#D5A97A" transform="translate(83.416667, 36.255411) rotate(-18.000000) translate(-83.416667, -36.255411) " points="61.2116861 5.74832936 105.521457 5.82084832 105.621647 66.7624932 61.3118768 66.6899742"></polygon>
                <g id="Lines-Copy" transform="translate(0.000000, 43.000000)" stroke="#515151" stroke-linecap="round" stroke-width="5">
                    <line x1="41.0506329" y1="0.307692308" x2="0.291139241" y2="0.307692308" id="Line"></line>
                    <line x1="46" y1="15.6923077" x2="19.7974684" y2="15.6923077" id="Line-Copy"></line>
                </g>
                <g id="Cart" transform="translate(22.000000, 12.000000)" fill="#515151" fill-rule="nonzero">
                    <g id="noun_cart_1570216">
                        <g>
                            <g id="Group">
                                <path d="M3.619593,2.41514325e-15 C1.62049179,2.41514325e-15 3.19690454e-15,2.04494609 3.19690454e-15,4.5674817 C3.19690454e-15,7.0900173 1.62049179,9.13494817 3.619593,9.13494817 L18.060321,9.13494817 C24.0509887,27.8577393 29.9517699,46.6148016 35.894297,65.3718943 L30.4272638,81.9764619 C29.9692646,83.360861 30.0981221,85.0301178 30.7591804,86.2768839 C31.4203594,87.52365 32.5940728,88.3106244 33.7828678,88.3047619 L94.1094178,88.3047619 C96.0216488,88.337877 97.7805297,86.1502128 97.7805297,83.7369158 C97.7805297,81.3236187 96.0216488,79.1353455 94.1094178,79.1694493 L39.2122573,79.1694493 L42.3417574,69.7490497 L100.443706,63.8970594 C101.964538,63.746333 103.34119,62.251249 103.686258,60.376304 L110.925444,20.791488 C111.398886,18.1252599 109.546499,15.2159817 107.381259,15.2248882 L27.7878565,15.2248882 L23.8666308,2.85466654 C23.3297245,1.18020289 21.9424551,2.41514325e-15 20.5110268,2.41514325e-15 L3.619593,2.41514325e-15 Z M30.8010471,24.4 L102.863874,24.4 L97.2509796,54.9358051 L42.2904665,60.4190476 L30.8010471,24.4 Z M45.9109948,91.2095238 C39.2141904,91.2095238 33.7068063,98.0256987 33.7068063,106.314286 C33.7068063,114.602722 39.2141904,121.419048 45.9109948,121.419048 C52.6077991,121.419048 58.1151832,114.602722 58.1151832,106.314286 C58.1151832,98.0258497 52.6077991,91.2095238 45.9109948,91.2095238 Z M81.9424084,91.2095238 C75.245604,91.2095238 69.7382199,98.0258497 69.7382199,106.314286 C69.7382199,114.602722 75.245604,121.419048 81.9424084,121.419048 C88.6392127,121.419048 94.1465969,114.602722 94.1465969,106.314286 C94.1465969,98.0256987 88.6392127,91.2095238 81.9424084,91.2095238 Z M45.6204188,99.9238095 C48.3925058,99.9238095 50.5602094,102.600642 50.5602094,106.02381 C50.5602094,109.446977 48.3925058,112.12381 45.6204188,112.12381 C42.8485789,112.12381 40.6806283,109.446825 40.6806283,106.02381 C40.6806283,102.600795 42.8485789,99.9238095 45.6204188,99.9238095 Z M82.2329843,99.9238095 C85.0048243,99.9238095 87.1727749,102.600795 87.1727749,106.02381 C87.1727749,109.446825 85.0048243,112.12381 82.2329843,112.12381 C79.4608973,112.12381 77.2931937,109.446977 77.2931937,106.02381 C77.2931937,102.600642 79.4608973,99.9238095 82.2329843,99.9238095 Z" id="Shape"></path>
                            </g>
                        </g>
                    </g>
                </g>
            </g>
        </g>
    </g>
</svg>